<svg width="665" height="41" viewBox="0 0 665 41" fill="none" xmlns="http://www.w3.org/2000/svg">
<g clip-path="url(#clip0_49_217)">
<path d="M75.5541 11.8824C73.573 11.8824 72.0454 12.5884 70.6279 14.0618V12.2258H66.7373V30.2927H70.9235V19.8142C70.9235 17.4154 72.352 15.8979 74.5195 15.8979C74.9133 15.8979 75.2585 15.9466 75.5045 15.9952L78.4101 12.1762C77.2773 11.9807 76.2931 11.8824 75.5541 11.8824ZM111.656 12.2258H106.829L102.372 18.1186L97.9146 12.2249H93.0876L99.8976 21.329L93.0876 30.2927H98.0129L102.347 24.577L106.681 30.2927H111.656L104.8 21.3437L111.656 12.2258ZM23.7403 8.16164C22.3119 10.0711 21.9667 10.7073 20.5878 10.7073H0V35.1885H8.07777C9.90007 35.1885 11.6728 34.3072 12.8056 32.8384C14.2837 30.8802 14.4801 30.2927 15.9086 30.2927H36.546V5.81148H28.4186C26.5963 5.81148 24.8236 6.69279 23.7394 8.16164H23.7403ZM30.1427 23.9766H21.5233C19.6514 23.9766 17.9283 24.7597 16.7954 26.2772C15.3174 28.2363 15.0218 28.8238 13.6429 28.8238H6.35371V17.073H14.9731C16.8441 17.073 18.5681 16.1917 19.701 14.7228C21.179 12.8133 21.5729 12.2258 22.9022 12.2258H30.1427V23.9766ZM61.0731 17.9543C62.8963 16.9261 64.176 15.1139 64.176 12.7151C64.176 9.18984 61.4678 5.81148 57.5276 5.81148H45.707V30.2927H57.5276C61.8121 30.2927 64.7672 27.2567 64.7672 23.4377C64.7672 21.1858 63.7335 19.2267 61.0731 17.9543ZM49.8932 9.63049H57.1824C59.0047 9.63049 60.088 11.3445 60.088 12.862C60.088 14.7228 58.4631 15.9952 56.9364 15.9952H49.8932V9.63049ZM56.9364 26.4736H49.8932V19.8142H57.1824C59.0543 19.8142 60.581 21.43 60.581 23.0953C60.581 24.9552 58.6605 26.4736 56.9364 26.4736Z" fill="white"/>
<path d="M88.9014 25.1021C88.2119 26.1799 86.8817 26.8161 85.4037 26.8161C83.0902 26.8161 81.1688 25.249 81.1688 22.8502H93.6788C93.8762 22.1157 93.9249 21.7733 93.9249 21.1362C93.9249 15.6528 90.5263 11.8824 85.4046 11.8824C80.3802 11.8824 76.8348 15.4573 76.8348 21.2831C76.8348 26.963 80.2324 30.6351 85.5028 30.6351C89.197 30.6351 92.4477 28.8238 93.3832 25.1021H88.9014ZM85.4037 15.7014C87.719 15.7014 89.4926 17.1703 89.443 19.3736H81.2175C81.2175 17.2199 83.0902 15.7014 85.4037 15.7014Z" fill="white"/>
</g>
<g filter="url(#filter0_di_49_217)">
<g style="mix-blend-mode:overlay">
<path fill-rule="evenodd" clip-rule="evenodd" d="M173.341 12.5933C178.96 12.4853 183.384 13.9973 186.816 16.9735C189.309 19.1357 191.394 22.1713 193.006 26.1806C191.777 25.8779 190.479 25.7296 189.119 25.7296C186.243 25.7296 183.663 26.3948 181.512 27.8425C179.103 26.3725 176.512 25.5998 173.767 25.5998C170.959 25.5998 168.264 26.4075 165.706 27.9237C163.238 26.3706 160.456 25.5998 157.42 25.5998C156.324 25.5998 155.276 25.7015 154.286 25.9142C155.736 22.2268 157.654 19.3843 159.983 17.3011C163.31 14.3243 167.695 12.7017 173.341 12.5933ZM151.922 32.519C152.013 32.4374 152.099 32.3485 152.177 32.2529C153.204 31.0617 154.811 30.3058 157.42 30.3058C159.882 30.3058 161.993 30.9898 163.84 32.3414L163.912 32.3957C164.916 33.1425 166.281 33.1733 167.317 32.4725C169.524 30.9797 171.661 30.3058 173.767 30.3058C175.835 30.3058 177.842 30.9553 179.831 32.3675L179.872 32.3972C180.977 33.1871 182.478 33.1187 183.506 32.2315C184.82 31.0974 186.618 30.4356 189.119 30.4356C191.75 30.4356 193.79 31.1692 195.401 32.5285C195.656 32.7528 195.957 32.9204 196.282 33.0185C196.677 33.1375 197.109 33.1541 197.537 33.0454C197.656 33.0154 197.772 32.9762 197.885 32.9277C197.928 32.9096 197.97 32.8903 198.011 32.8699C198.657 32.548 199.11 31.9491 199.259 31.2625C199.318 30.9885 199.33 30.7006 199.285 30.4107C199.271 30.3179 199.251 30.2259 199.227 30.1352C197.36 22.904 194.308 17.2423 189.899 13.4184C185.443 9.55337 179.826 7.76181 173.25 7.88815C166.701 8.014 161.165 9.92931 156.845 13.7937C152.563 17.6244 149.696 23.1741 148.072 30.1886C148.048 30.2838 148.03 30.3801 148.018 30.4768C147.935 31.1459 148.145 31.7967 148.558 32.2852C148.792 32.5622 149.091 32.787 149.44 32.9333C149.618 33.0086 149.804 33.0606 149.992 33.0897C150.709 33.2019 151.411 32.9749 151.922 32.519Z" fill="white"/>
</g>
<path fill-rule="evenodd" clip-rule="evenodd" d="M173.341 12.5933C178.96 12.4853 183.384 13.9973 186.816 16.9735C189.309 19.1357 191.394 22.1713 193.006 26.1806C191.777 25.8779 190.479 25.7296 189.119 25.7296C186.243 25.7296 183.663 26.3948 181.512 27.8425C179.103 26.3725 176.512 25.5998 173.767 25.5998C170.959 25.5998 168.264 26.4075 165.706 27.9237C163.238 26.3706 160.456 25.5998 157.42 25.5998C156.324 25.5998 155.276 25.7015 154.286 25.9142C155.736 22.2268 157.654 19.3843 159.983 17.3011C163.31 14.3243 167.695 12.7017 173.341 12.5933ZM151.922 32.519C152.013 32.4374 152.099 32.3485 152.177 32.2529C153.204 31.0617 154.811 30.3058 157.42 30.3058C159.882 30.3058 161.993 30.9898 163.84 32.3414L163.912 32.3957C164.916 33.1425 166.281 33.1733 167.317 32.4725C169.524 30.9797 171.661 30.3058 173.767 30.3058C175.835 30.3058 177.842 30.9553 179.831 32.3675L179.872 32.3972C180.977 33.1871 182.478 33.1187 183.506 32.2315C184.82 31.0974 186.618 30.4356 189.119 30.4356C191.75 30.4356 193.79 31.1692 195.401 32.5285C195.656 32.7528 195.957 32.9204 196.282 33.0185C196.677 33.1375 197.109 33.1541 197.537 33.0454C197.656 33.0154 197.772 32.9762 197.885 32.9277C197.928 32.9096 197.97 32.8903 198.011 32.8699C198.657 32.548 199.11 31.9491 199.259 31.2625C199.318 30.9885 199.33 30.7006 199.285 30.4107C199.271 30.3179 199.251 30.2259 199.227 30.1352C197.36 22.904 194.308 17.2423 189.899 13.4184C185.443 9.55337 179.826 7.76181 173.25 7.88815C166.701 8.014 161.165 9.92931 156.845 13.7937C152.563 17.6244 149.696 23.1741 148.072 30.1886C148.048 30.2838 148.03 30.3801 148.018 30.4768C147.935 31.1459 148.145 31.7967 148.558 32.2852C148.792 32.5622 149.091 32.787 149.44 32.9333C149.618 33.0086 149.804 33.0606 149.992 33.0897C150.709 33.2019 151.411 32.9749 151.922 32.519Z" fill="white"/>
</g>
<g clip-path="url(#clip1_49_217)">
<path fill-rule="evenodd" clip-rule="evenodd" d="M263.836 6.20937H235.312V19.4824C238.687 15.7731 243.937 13.497 249.408 13.4383C254.981 13.3786 260.383 15.6341 263.836 19.4022V6.20937ZM263.836 27.8212C263.301 20.3005 257.33 15.023 249.428 15.1078C241.534 15.1924 235.695 20.5977 235.312 28.1174V30.8558L235.354 34.7331H263.836V27.8212Z" fill="white"/>
<path d="M279.181 15.9493C275.959 15.9493 273.856 17.6153 273.446 20.2646H275.467C275.822 18.7077 276.86 17.5607 279.181 17.5607C281.394 17.5607 282.404 18.3254 282.404 20.483V21.8759C274.62 23.6512 273.227 26.3433 273.255 30.167H275.167C275.167 27.5178 276.041 25.3445 282.404 23.6239V30.167H284.316V20.3465C284.316 17.151 281.913 15.9493 279.181 15.9493Z" fill="white"/>
<path d="M299.584 18.1342V16.2224C294.941 15.2665 292.955 17.5118 291.981 18.8598L292.09 16.2224H290.178L290.206 30.167H292.117L292.09 23.3507C292.09 20.7834 294.067 16.9598 299.584 18.1342Z" fill="white"/>
<path d="M309.608 30.1514C312.994 30.1514 315.453 28.1576 315.889 25.3445H313.896C313.486 27.0378 312.12 28.3488 309.608 28.3488C306.576 28.3488 304.664 26.0819 304.664 23.0503C304.664 19.9914 306.549 17.7518 309.608 17.7518C312.066 17.7518 313.459 19.0354 313.868 20.7834H315.835C315.316 17.9976 312.994 15.9493 309.608 15.9493C305.566 15.9493 302.753 19.0354 302.753 23.0503C302.753 27.0651 305.593 30.1514 309.608 30.1514Z" fill="white"/>
<path d="M320.714 30.167H322.626V17.9977H325.92C328.445 17.9977 330.492 20.0444 330.492 22.5692V30.167H332.404V22.5521C332.404 19.0563 329.57 16.2224 326.074 16.2224H322.626V10.8379H320.714V30.167Z" fill="white"/>
<path d="M344.809 30.1514C348.824 30.1514 351.528 27.0651 351.528 23.0503C351.528 19.0082 348.824 15.9493 344.809 15.9493C342.488 15.9493 341.013 16.9325 339.975 18.2981V10.8379H338.063V30.167H339.975V27.8026C341.15 29.2502 342.461 30.1514 344.809 30.1514ZM344.809 28.3488C341.751 28.3488 339.975 26.1093 339.975 23.0503C339.975 19.8549 341.86 17.7518 344.809 17.7518C347.868 17.7518 349.589 20.1007 349.589 23.0503C349.589 26.0819 347.841 28.3488 344.809 28.3488Z" fill="white"/>
<path d="M356.408 30.167H358.319V10.8379H356.408V30.167Z" fill="white"/>
<path d="M370.509 15.9493C366.495 15.9493 363.572 19.0354 363.572 23.0503C363.572 27.0651 366.467 30.1514 370.509 30.1514C374.524 30.1514 377.391 27.0651 377.391 23.0503C377.391 19.0082 374.524 15.9493 370.509 15.9493ZM370.509 17.7245C373.567 17.7245 375.48 20.0733 375.48 23.0503C375.48 26.1093 373.54 28.3762 370.509 28.3762C367.45 28.3762 365.456 26.1366 365.456 23.0503C365.456 19.9914 367.477 17.7245 370.509 17.7245Z" fill="white"/>
<path d="M388.47 30.1514C391.857 30.1514 394.315 28.1576 394.752 25.3445H392.758C392.349 27.0378 390.983 28.3488 388.47 28.3488C385.439 28.3488 383.527 26.0819 383.527 23.0503C383.527 19.9914 385.412 17.7518 388.47 17.7518C390.928 17.7518 392.321 19.0354 392.731 20.7834H394.697C394.179 17.9976 391.857 15.9493 388.47 15.9493C384.428 15.9493 381.615 19.0354 381.615 23.0503C381.615 27.0651 384.456 30.1514 388.47 30.1514Z" fill="white"/>
<path d="M401.858 10.8379H399.947V30.167H401.858V24.6071L404.071 22.5314L409.751 30.167H411.964L405.409 21.357L411.035 16.2224H408.413L401.858 22.3948V10.8379Z" fill="white"/>
</g>
<g clip-path="url(#clip2_49_217)">
<path d="M478.755 1.26953C462.34 1.26953 449.032 9.87891 449.032 20.4961C449.032 31.1172 462.34 39.7305 478.755 39.7305C495.169 39.7305 508.477 31.1211 508.477 20.4961C508.477 9.87109 495.169 1.26953 478.755 1.26953ZM478.755 31.4766C476.313 31.4766 474.321 26.668 474.196 20.6172C475.665 20.7461 477.192 20.8164 478.755 20.8164C480.317 20.8164 481.844 20.7461 483.313 20.6172C483.188 26.6641 481.196 31.4766 478.755 31.4766ZM474.497 15.8125C475.161 11.5352 476.817 8.5 478.755 8.5C480.692 8.5 482.348 11.5352 483.012 15.8125C481.649 15.9336 480.227 16 478.755 16C477.282 16 475.86 15.9336 474.497 15.8125ZM478.755 4.05078C475.567 4.05078 472.848 8.82422 471.844 15.4883C465.801 14.5469 461.583 12.3984 461.583 9.90234C461.583 6.53516 469.27 3.80469 478.755 3.80469C488.239 3.80469 495.926 6.53516 495.926 9.90234C495.926 12.3984 491.708 14.5469 485.665 15.4883C484.661 8.82422 481.942 4.05078 478.755 4.05078ZM453.294 19.7773C453.294 16.5195 454.548 13.4609 456.731 10.8359C456.708 11.0195 456.692 11.207 456.692 11.3945C456.692 15.5 462.848 19 471.438 20.2891C471.43 20.5859 471.43 20.8867 471.43 21.1875C471.43 28.8398 473.575 35.3203 476.54 37.5195C463.512 36.7344 453.294 29.0898 453.294 19.7773ZM480.969 37.5195C483.934 35.3203 486.079 28.8398 486.079 21.1875C486.079 20.8828 486.075 20.5859 486.071 20.2891C494.657 19 500.817 15.5039 500.817 11.3945C500.817 11.207 500.801 11.0195 500.778 10.8359C502.962 13.4688 504.215 16.5195 504.215 19.7773C504.215 29.0898 493.997 36.7344 480.969 37.5195Z" fill="white"/>
</g>
<g clip-path="url(#clip3_49_217)">
<path fill-rule="evenodd" clip-rule="evenodd" d="M558.689 15.1422H544.755V11.9286H558.689V15.1422ZM562.922 18.1003C563.761 16.9181 565.012 16.4995 566.3 16.4995C568.973 16.4995 570.88 18.3833 570.88 21.1538V28.7507H567.709V22.1881C567.709 20.4644 566.859 19.516 565.413 19.516C564.052 19.516 562.922 20.415 562.922 22.2127V28.7507H559.752V11.9286H562.922V18.1003ZM633.731 26.5641C632.652 26.5638 632.125 25.8517 632.126 25.1142C632.126 24.1478 632.804 23.6653 633.657 23.5387L636.566 23.0977V23.6569C636.565 25.8689 635.136 26.5645 633.731 26.5641ZM634.317 16.4765C632.397 16.4765 630.736 17.1085 629.473 18.0566L630.679 20.283C631.492 19.7042 632.547 19.2139 633.871 19.2139C635.164 19.2139 636.461 19.5481 636.461 21.0253C635.982 21.0945 632.601 21.5194 632.601 21.5194C630.544 21.8236 628.914 23.0689 628.913 25.3066C628.912 27.2644 630.517 29.0703 633.152 29.0714C634.786 29.0719 636.107 28.3199 636.723 27.338L636.71 28.7276H639.783V21.697C639.783 18.2372 637.658 16.4765 634.317 16.4765ZM604.894 28.7508V21.1538C604.894 18.3833 603.023 16.4996 600.253 16.4996C598.71 16.4996 597.167 17.0291 596.256 18.5436C595.466 17.2753 594.069 16.4996 592.369 16.4996C591.032 16.4996 589.744 16.9553 588.906 18.2233V16.8197H585.82V28.7508H588.991V22.2127C588.991 20.415 590.121 19.516 591.481 19.516C592.927 19.516 593.778 20.4645 593.778 22.1881V28.7508H596.949V22.2127C596.949 20.415 598.078 19.516 599.439 19.516C600.872 19.516 601.735 20.4645 601.735 22.1881V28.7508H604.894ZM619.093 22.779C619.093 26.3619 616.639 29.0583 613.395 29.0583C611.767 29.0583 610.638 28.3936 609.872 27.4333V28.7507H606.774V11.9409H609.933V18.0633C610.698 17.1276 611.804 16.4996 613.383 16.4996C616.639 16.4996 619.093 19.196 619.093 22.779ZM612.866 26.0666C611.068 26.0666 609.841 24.663 609.841 22.779C609.841 20.8953 611.068 19.4916 612.866 19.4916C614.737 19.4916 615.904 20.9568 615.904 22.779C615.904 24.6013 614.737 26.0666 612.866 26.0666ZM651.93 18.7528L649.647 20.6858C648.93 19.9102 648.164 19.4916 647.132 19.4916C645.491 19.4916 644.18 20.7968 644.18 22.779C644.18 24.7735 645.479 26.0666 647.119 26.0666C648.14 26.0666 649.015 25.5987 649.683 24.8598L651.943 26.8177C650.837 28.2583 649.184 29.0583 647.217 29.0583C643.462 29.0583 640.948 26.399 640.948 22.779C640.948 19.1714 643.462 16.4996 647.217 16.4996C649.184 16.4996 650.848 17.3123 651.93 18.7528ZM660.289 16.8196H664.105L659.841 21.2795L664.755 28.7507H660.897L657.616 23.3486L656.183 24.8511V28.7507H653.012V11.9407L656.183 11.9407V21.2551L660.289 16.8196ZM580.626 27.4699C579.788 28.6522 578.536 29.0707 577.249 29.0707C574.576 29.0707 572.669 27.1871 572.669 24.4165V16.8196H575.839V23.3823C575.839 25.1059 576.69 26.0543 578.135 26.0543C579.496 26.0543 580.626 25.1553 580.626 23.3576V16.8196H583.797V28.7507H580.626V27.4699ZM621.237 16.8196H619.511V19.6764H621.237V25.4256C621.237 27.8149 623.011 29.0455 624.615 29.0455C627.04 29.0455 628.125 28.2029 628.125 28.2029L627.104 25.6467C627.104 25.6467 626.249 26.0664 625.59 26.0664C624.966 26.0664 624.396 25.5599 624.396 24.7243V19.6764H627.91V16.8196H624.396V13.2736H621.237V16.8196ZM553.416 16.4938C552.124 16.4938 550.868 16.9138 550.027 18.0999V24.0721C550.027 25.3786 550.366 26.6622 551.01 27.7941L551.722 29.0455L552.434 27.7941C553.077 26.6622 553.416 25.3786 553.416 24.0721V16.4938Z" fill="white"/>
</g>
<defs>
<filter id="filter0_di_49_217" x="140.517" y="0.398842" width="66.2786" height="40.2023" filterUnits="userSpaceOnUse" color-interpolation-filters="sRGB">
<feFlood flood-opacity="0" result="BackgroundImageFix"/>
<feColorMatrix in="SourceAlpha" type="matrix" values="0 0 0 0 0 0 0 0 0 0 0 0 0 0 0 0 0 0 127 0" result="hardAlpha"/>
<feOffset/>
<feGaussianBlur stdDeviation="3.74153"/>
<feComposite in2="hardAlpha" operator="out"/>
<feColorMatrix type="matrix" values="0 0 0 0 1 0 0 0 0 1 0 0 0 0 1 0 0 0 0.08 0"/>
<feBlend mode="normal" in2="BackgroundImageFix" result="effect1_dropShadow_49_217"/>
<feBlend mode="normal" in="SourceGraphic" in2="effect1_dropShadow_49_217" result="shape"/>
<feColorMatrix in="SourceAlpha" type="matrix" values="0 0 0 0 0 0 0 0 0 0 0 0 0 0 0 0 0 0 127 0" result="hardAlpha"/>
<feOffset dy="4.27604"/>
<feGaussianBlur stdDeviation="6.41406"/>
<feComposite in2="hardAlpha" operator="arithmetic" k2="-1" k3="1"/>
<feColorMatrix type="matrix" values="0 0 0 0 0 0 0 0 0 0 0 0 0 0 0 0 0 0 0.08 0"/>
<feBlend mode="normal" in2="shape" result="effect2_innerShadow_49_217"/>
</filter>
<clipPath id="clip0_49_217">
<rect width="112" height="29.377" fill="white" transform="translate(0 5.81148)"/>
</clipPath>
<clipPath id="clip1_49_217">
<rect width="177.442" height="28.5813" fill="white" transform="translate(235.312 6.20937)"/>
</clipPath>
<clipPath id="clip2_49_217">
<rect width="60" height="39" fill="white" transform="translate(448.755 1)"/>
</clipPath>
<clipPath id="clip3_49_217">
<rect width="120" height="17.1429" fill="white" transform="translate(544.755 11.9286)"/>
</clipPath>
</defs>
</svg>
